Coordinates
version=1
nRows=30
nColumns=19
inDegrees=yes

Units are S.I. units (second, meters, Newtons, ...)
If the header above contains a line with 'inDegrees', this indicates whether rotational values are in degrees (yes) or radians (no).

endheader
time	pelvis_tilt	pelvis_list	pelvis_rotation	pelvis_tx	pelvis_ty	pelvis_tz	hip_flexion_r	hip_adduction_r	hip_rotation_r	knee_angle_r	knee_angle_r_beta	ankle_angle_r	hip_flexion_l	hip_adduction_l	hip_rotation_l	knee_angle_l	knee_angle_l_beta	ankle_angle_l
     17.08666667	     -4.45718616	     10.24527563	      7.73425175	      2.49370396	      1.03405382	      1.02815101	    -20.87367626	    -12.63886034	    -16.44023621	     78.54010188	      1.37078337	    -20.94383973	     25.87721405	     15.79165901	     -1.66511192	      8.94246443	      0.15607545	      8.07588576
     17.09333333	     -4.24816133	     10.76707916	      8.18748936	      2.49213785	      1.02881313	      1.02822020	    -19.84399402	    -13.32602322	    -16.27517256	     82.38543876	      1.43789716	    -20.57982927	     26.32026322	     16.29831099	     -2.43703578	     12.43746476	      0.21707471	      7.81148837
     17.10000000	     -4.07255796	     11.14876351	      8.62750829	      2.49041989	      1.02320129	      1.02836391	    -18.63499314	    -13.90895141	    -16.01773565	     86.15480862	      1.50368508	    -20.15148833	     26.89686838	     16.59679549	     -3.23694964	     16.32669130	      0.28495452	      7.57036466
     17.10666667	     -3.64261189	     11.63722255	      9.00276275	      2.48865751	      1.01762617	      1.02873334	    -17.64738879	    -14.63825398	    -15.79080309	     89.78409581	      1.56702809	    -19.61563721	     27.13985034	     16.91067857	     -3.93821392	     20.29773178	      0.35426225	      7.46245983
     17.11333333	     -3.81066614	     11.68737117	      9.39521317	      2.48660511	      1.01127450	      1.02906908	    -15.66345940	    -15.00138034	    -15.18066143	     93.45966517	      1.63117888	    -19.09468080	     28.11055677	     16.80817180	     -4.52286334	     24.50652254	      0.42771951	      7.50719401
     17.12000000	     -3.69182244	     11.86108911	      9.72644901	      2.48440985	      1.00527022	      1.02960429	    -13.89976305	    -15.48930038	    -14.56665877	     96.96718015	      1.69239656	    -18.47882113	     28.61305432	     16.80015504	     -4.85237068	     28.55518113	      0.49838193	      7.88598945
     17.12666667	     -3.17363492	     12.21278276	     10.02271914	      2.48209438	      0.99983770	      1.03024770	    -12.52661414	    -16.12134116	    -13.99609104	    100.26292736	      1.74991820	    -17.66027617	     28.47336025	     16.95901315	     -4.93444452	     32.35846083	      0.56476168	      8.67141624
     17.13333333	     -3.50688694	     12.00793370	     10.31567565	      2.47934223	      0.99387454	      1.03081436	     -9.72662436	    -16.30089660	    -12.93306717	    103.59350233	      1.80804770	    -17.08542178	     29.23238523	     16.70526354	     -4.74625649	     36.10600910	      0.63016874	      9.82991979
     17.14000000	     -3.39164380	     12.00259157	     10.55650083	      2.47648749	      0.98881454	      1.03145368	     -7.36376592	    -16.63173201	    -11.92654182	    106.64334627	      1.86127752	    -16.35666334	     29.20903368	     16.64956309	     -4.36885609	     39.43644019	      0.68829573	     11.39851425
     17.14666667	     -3.25781605	     11.93410114	     10.75824197	      2.47344442	      0.98434747	      1.03210330	     -4.82299178	    -16.88836120	    -10.81192153	    109.46966382	      1.91060606	    -15.57496875	     28.91356010	     16.56798470	     -3.83308018	     42.37931522	      0.73965859	     13.28272921
     17.15333333	     -3.10238483	     11.80245504	     10.93052168	      2.47036735	      0.98059977	      1.03273935	     -2.13777182	    -17.06007713	     -9.63881224	    112.01203071	      1.95497874	    -14.80081520	     28.29188210	     16.45371482	     -3.14884778	     44.85633633	      0.78289076	     15.41312715
     17.16000000	     -2.91547890	     11.58416624	     11.05473313	      2.46724089	      0.97764326	      1.03338700	      0.67337183	    -17.10513745	     -8.42330678	    114.23661094	      1.99380499	    -13.97248306	     27.33573230	     16.24229603	     -2.38781361	     46.84664984	      0.81762828	     17.67784645
     17.16666667	     -2.21324102	     11.60931777	     11.24326287	      2.46438752	      0.97610788	      1.03387565	      2.80558315	    -17.37084159	     -7.50528271	    115.97843072	      2.02420548	    -13.20036764	     25.36264358	     16.27065052	     -1.38471265	     48.17940132	      0.84088918	     19.98174831
     17.17333333	     -2.27958502	     10.84000822	     11.08194145	      2.46160636	      0.97458110	      1.03474556	      6.31714191	    -16.67792796	     -6.08346944	    117.48234920	      2.05045381	    -12.29692657	     24.16711262	     15.34248705	     -0.75161046	     49.20558784	      0.85879952	     22.23042453
     17.18000000	     -1.70753436	     10.29120337	     10.95685812	      2.45938004	      0.97468990	      1.03547320	      8.89761673	    -16.14198734	     -5.09044624	    118.39809284	      2.06643655	    -11.47438164	     21.83578933	     14.55513643	      0.04285687	     49.55869369	      0.86496238	     24.30339947
     17.18666667	     -1.18043864	      9.60734767	     10.79736336	      2.45766879	      0.97563909	      1.03604325	     11.46228008	    -15.44884173	     -4.29786278	    118.84801113	      2.07428910	    -10.58292919	     19.26977623	     13.58085237	      0.81696885	     49.38369255	      0.86190803	     26.09505481
     17.19333333	     -0.92296092	      9.01812813	     10.81524776	      2.45628029	      0.97716161	      1.03609969	     14.14503174	    -15.01115902	     -3.81038751	    118.90764077	      2.07532984	     -9.73778213	     16.68423270	     12.84422098	      1.85716697	     48.65933125	      0.84926554	     27.27882396
     17.20000000	     -0.28340026	      7.80920921	     10.08993796	      2.45543104	      0.97956573	      1.03704693	     16.61574609	    -13.47948176	     -3.07138594	    118.52224426	      2.06860340	     -8.78790691	     13.74029761	     10.96061749	      1.85495353	     47.71283784	      0.83274612	     28.47418768
     17.20666667	     -0.36221647	      6.99583120	      9.98275497	      2.45509880	      0.98211369	      1.03684210	     19.40518113	    -12.84448643	     -2.95272241	    117.77045153	      2.05548214	     -7.91364519	     11.19171562	      9.90267133	      2.54017562	     46.21020293	      0.80652019	     28.73450530
     17.21333333	      0.39579511	      5.47354432	      8.98200288	      2.45535949	      0.98610731	      1.03770125	     21.36740468	    -10.80838654	     -2.60064372	    116.46866152	      2.03276162	     -6.98482566	      7.80658008	      7.62058462	      2.07503459	     44.48561071	      0.77642038	     28.74273965
     17.22000000	      1.16636763	      4.33595180	      8.40811483	      2.45634814	      0.99085998	      1.03768884	     22.77894350	     -9.51480422	     -2.79360651	    114.73976627	      2.00258670	     -6.00664789	      4.04721082	      5.97131260	      2.11007413	     42.18281666	      0.73622904	     27.91402930
     17.22666667	      1.22323374	      2.91184628	      7.75569148	      2.45762712	      0.99522092	      1.03772305	     24.87643417	     -7.92547179	     -3.06918511	    112.75012403	      1.96786090	     -5.10909860	      1.12783925	      4.12363168	      1.79101523	     39.86144077	      0.69571339	     26.40863273
     17.23333333	      1.49140971	      1.56943356	      7.10505589	      2.45941338	      1.00030974	      1.03762725	     26.42435680	     -6.43872636	     -3.52364911	    110.38481203	      1.92657841	     -4.16694499	     -2.17107895	      2.41961022	      1.44165366	     37.19670829	      0.64920503	     24.21148385
     17.24000000	      1.16434926	      0.14135279	      6.36165845	      2.46146069	      1.00504405	      1.03770441	     28.47730894	     -4.83952916	     -3.98672445	    107.79269559	      1.88133745	     -3.31231719	     -4.76471286	      0.74496522	      0.80488490	     34.56542385	      0.60328045	     21.31922933
     17.24666667	      1.05970971	     -1.13609268	      5.65556886	      2.46389580	      1.01035869	      1.03772106	     29.98440232	     -3.43088675	     -4.58012536	    104.88845289	      1.83064885	     -2.43616664	     -7.68113327	     -0.71252363	      0.17035288	     31.69561638	      0.55319286	     17.73631787
     17.25333333	      0.32106601	     -2.37725276	      4.77643733	      2.46647095	      1.01520568	      1.03812103	     32.05387340	     -1.95033489	     -5.02394311	    101.79718339	      1.77669602	     -1.69601465	     -9.80550248	     -2.02106345	     -0.80950126	     28.97043580	      0.50562949	     13.61897195
     17.26000000	     -0.02833590	     -3.40031023	      4.04455862	      2.46939821	      1.02068124	      1.03837325	     33.37872770	     -0.78036025	     -5.62732401	     98.41820911	      1.71772179	     -0.90923029	    -12.38976557	     -3.05967330	     -1.60207783	     26.05531266	      0.45475099	      8.95725830
     17.26666667	     -0.85366695	     -4.28710161	      3.12111638	      2.47245896	      1.02574544	      1.03901511	     35.07651427	      0.38965823	     -6.01573803	     94.86979321	      1.65579025	     -0.25911755	    -14.33670590	     -3.86895049	     -2.72288428	     23.32878593	      0.40716412	      4.02059028
     17.27333333	     -1.52898991	     -4.99461358	      2.27342578	      2.47563724	      1.03102659	      1.03969016	     36.37448871	      1.36680729	     -6.44065842	     91.08077210	      1.58965936	      0.32035577	    -16.36890921	     -4.45338951	     -3.75174132	     20.62852663	      0.36003571	     -1.04710716
     17.28000000	     -2.47804710	     -5.51197161	      1.34285182	      2.47890324	      1.03592559	      1.04049916	     37.79692149	      2.21775307	     -6.73321441	     87.12530427	      1.52062342	      0.76650305	    -17.96066039	     -4.78090071	     -4.88294579	     18.14746102	      0.31673295	     -5.99521036
